<svg width="55" height="50" viewBox="0 0 55 50" fill="none" xmlns="http://www.w3.org/2000/svg">
<path d="M27.811 0C22.5026 0 17.3133 1.46622 12.8995 4.21326C8.48574 6.96029 5.0456 10.8648 3.01415 15.4329C0.982699 20.0011 0.451179 25.0277 1.4868 29.8773C2.52243 34.7268 5.07868 39.1814 8.83231 42.6777C12.5859 46.174 17.3684 48.555 22.5748 49.5196C27.7812 50.4842 33.1778 49.9892 38.0822 48.097C42.9866 46.2048 47.1784 43.0005 50.1276 38.8892C53.0768 34.778 54.6509 29.9445 54.6509 25C54.6425 18.372 51.8121 12.0177 46.7804 7.33097C41.7488 2.64425 34.9268 0.00781925 27.811 0ZM27.811 45.4545C23.4677 45.4545 19.222 44.2549 15.6107 42.0073C11.9994 39.7598 9.18476 36.5652 7.52267 32.8276C5.86057 29.09 5.42569 24.9773 6.27302 21.0095C7.12035 17.0417 9.21183 13.3971 12.283 10.5364C15.3541 7.67583 19.267 5.72772 23.5268 4.93848C27.7866 4.14924 32.2021 4.55431 36.2147 6.10246C40.2274 7.65062 43.657 10.2723 46.07 13.6361C48.483 16.9998 49.7709 20.9545 49.7709 25C49.7638 30.4228 47.4479 35.6217 43.3312 39.4562C39.2144 43.2908 33.633 45.4479 27.811 45.4545ZM30.251 35.2273V39.7727H25.371V35.2273H30.251ZM37.571 19.3182C37.5736 20.6812 37.2459 22.0272 36.6121 23.2558C35.9784 24.4843 35.0551 25.5638 33.911 26.4136C32.0629 27.7476 30.8132 29.6739 30.4047 31.8182H25.4466C25.6624 30.066 26.2526 28.3717 27.1825 26.8354C28.1124 25.299 29.3632 23.9517 30.861 22.8727C31.4621 22.4246 31.9408 21.8504 32.2581 21.197C32.5754 20.5436 32.7221 19.8295 32.6864 19.1132C32.6508 18.3968 32.4336 17.6985 32.0527 17.0753C31.6718 16.452 31.1381 15.9216 30.495 15.5273C29.7783 15.0909 28.9536 14.8326 28.0994 14.7769C27.2453 14.7212 26.39 14.87 25.615 15.2091C24.7883 15.5782 24.0946 16.163 23.6181 16.8925C23.1416 17.622 22.9029 18.4647 22.931 19.3182C22.931 19.9209 22.6739 20.499 22.2164 20.9252C21.7588 21.3515 21.1382 21.5909 20.491 21.5909C19.8439 21.5909 19.2233 21.3515 18.7657 20.9252C18.3081 20.499 18.051 19.9209 18.051 19.3182C18.0147 17.5714 18.5322 15.8535 19.5386 14.3792C20.545 12.905 21.9958 11.7398 23.7094 11.0295C25.2284 10.3972 26.8939 10.1314 28.5523 10.2565C30.2107 10.3816 31.8085 10.8937 33.1985 11.7455C34.5416 12.5736 35.6438 13.6985 36.4067 15.0199C37.1696 16.3412 37.5696 17.8179 37.571 19.3182Z" fill="white"/>
</svg>
