<svg width="27" height="31" viewBox="0 0 27 31" fill="none" xmlns="http://www.w3.org/2000/svg">
<path d="M13.5 1C15.9273 1 18.351 1.67601 20.1914 3.12598C22.0603 4.59853 23.2627 6.82305 23.2627 9.73633V12.374C23.9466 12.54 24.5568 12.8367 25.0352 13.3232C25.73 14.0301 25.9999 14.9791 26 16.0186V26.1768C26 27.3322 25.6699 28.3655 24.8252 29.0791C24.0158 29.7628 22.9088 30 21.6943 30H5.30566C4.09123 30 2.9842 29.7628 2.1748 29.0791C1.33014 28.3655 1 27.3322 1 26.1768V16.0186L1.00391 15.8242C1.04446 14.8591 1.38963 14.0233 2.0459 13.3975C2.51557 12.9496 3.09886 12.6563 3.7373 12.4766V9.73633C3.7373 6.82305 4.93968 4.59853 6.80859 3.12598C8.64895 1.67601 11.0727 1 13.5 1ZM13.5 5.13086C12.0702 5.13086 10.8108 5.54129 9.92969 6.26074C9.07203 6.96112 8.50882 8.00254 8.50879 9.44531V12.2217L18.4912 12.2109V9.44531C18.4912 8.00254 17.928 6.96112 17.0703 6.26074C16.1892 5.54129 14.9298 5.13086 13.5 5.13086Z" stroke="#868686" stroke-width="2"/>
</svg>
