<svg width="197" height="100" viewBox="0 0 197 100" fill="none" xmlns="http://www.w3.org/2000/svg">
<mask id="mask0_379_694" style="mask-type:luminance" maskUnits="userSpaceOnUse" x="62" y="22" width="50" height="44">
<path d="M62.2465 22.9629H111.907V65.8333H62.2465V22.9629Z" fill="white"/>
</mask>
<g mask="url(#mask0_379_694)">
<path d="M109.025 50.6038C107.973 49.6552 107 48.6371 106.119 47.5627V53.8397C106.119 54.0625 106.119 54.2858 106.103 54.4951C106.088 54.7044 106.057 54.9276 106.011 55.1504C105.964 55.3737 105.918 55.583 105.841 55.7923C105.779 56.0016 105.701 56.2109 105.609 56.4197C105.516 56.629 105.423 56.8243 105.299 57.0197C105.191 57.215 105.068 57.4103 104.928 57.5916C104.79 57.7729 104.651 57.9543 104.496 58.1216C104.341 58.2889 104.187 58.4563 104.001 58.6096C103.831 58.763 103.646 58.9168 103.46 59.0562C103.275 59.1956 103.074 59.335 102.873 59.4608C102.672 59.5862 102.456 59.6976 102.239 59.8095C102.023 59.9209 101.807 60.0048 101.575 60.1022C101.343 60.1861 101.126 60.2696 100.879 60.3255C100.647 60.3949 100.415 60.4509 100.168 60.4928C99.9206 60.5348 99.6892 60.5623 99.4418 60.5903C99.1944 60.6182 98.947 60.6182 98.715 60.6182C98.4681 60.6182 98.2207 60.6042 97.9888 60.5903C97.7414 60.5623 97.5094 60.5348 97.2625 60.4928C97.0151 60.4509 96.7832 60.3949 96.5513 60.3255C96.3193 60.2556 96.0879 60.1861 95.856 60.1022C95.6241 60.0183 95.4076 59.9209 95.1912 59.8095C94.9748 59.6976 94.7739 59.5862 94.5574 59.4608C94.3565 59.335 94.1556 59.2096 93.9701 59.0562C93.7847 58.9168 93.5993 58.763 93.4293 58.6096C93.2594 58.4563 93.0894 58.2889 92.9345 58.1216C92.78 57.9543 92.6411 57.7729 92.5016 57.5916C92.3627 57.4103 92.2392 57.215 92.1307 57.0197C92.0228 56.8243 91.9143 56.629 91.8218 56.4197C91.7289 56.2109 91.6519 56.0016 91.5899 55.7923C91.5279 55.583 91.4665 55.3597 91.42 55.1504C91.3735 54.9276 91.3425 54.7183 91.327 54.4951C91.3115 54.2718 91.2965 54.049 91.3115 53.8397V39.4034H75.3608C74.9745 39.4034 74.5881 39.3755 74.2017 39.3195C73.8154 39.2636 73.4445 39.1801 73.0736 39.0687C72.7022 38.9569 72.3468 38.8315 72.007 38.6641C71.6671 38.5108 71.3267 38.3155 71.0178 38.1202C70.7084 37.9109 70.415 37.6876 70.1366 37.4368C69.8587 37.1855 69.6113 36.9203 69.3793 36.6416C69.1474 36.3628 68.9465 36.0556 68.7765 35.7489C68.6066 35.4422 68.4521 35.107 68.3282 34.7863C68.2047 34.4517 68.1272 34.117 68.0658 33.7683C68.0038 33.4196 67.9728 33.071 67.9728 32.7223C67.9728 32.3736 68.0038 32.025 68.0658 31.6763C68.1272 31.3271 68.2202 30.9925 68.3437 30.6578C68.4676 30.3231 68.6221 30.0024 68.792 29.6952C68.962 29.3885 69.1784 29.0818 69.3948 28.8025C69.6267 28.5238 69.8742 28.2586 70.1521 28.0078C70.4305 27.7565 70.7239 27.5333 71.0333 27.3384L71.5896 26.9758C70.8633 26.4318 70.1986 25.8458 69.5803 25.204C68.9155 24.5346 68.3127 23.8233 67.7409 23.084L67.463 23.2653C67.1846 23.4466 66.9216 23.642 66.6747 23.8512C66.4118 24.0605 66.1644 24.2698 65.9325 24.4926C65.7005 24.7159 65.4691 24.9392 65.2527 25.1765C65.0363 25.4133 64.8199 25.6505 64.6344 25.9153C64.4335 26.1665 64.248 26.4318 64.0781 26.6965C63.9076 26.9618 63.7377 27.2265 63.5833 27.5058C63.4288 27.7845 63.2899 28.0637 63.1659 28.3425C63.0424 28.6212 62.9185 28.9144 62.826 29.2072C62.7175 29.5004 62.6406 29.7931 62.5631 30.0998C62.4861 30.407 62.4241 30.6997 62.3777 31.0064C62.3312 31.3136 62.2852 31.6203 62.2697 31.9271C62.2542 32.2478 62.2542 32.555 62.2542 32.8617C62.2542 33.1684 62.2697 33.4756 62.3002 33.7823C62.3312 34.089 62.3777 34.3957 62.4241 34.7029C62.4861 35.0096 62.5476 35.3024 62.6251 35.6095C62.702 35.9023 62.8105 36.209 62.903 36.5022C63.0115 36.7949 63.1349 37.0881 63.2589 37.3669C63.3978 37.6456 63.5368 37.9248 63.6917 38.2036C63.8462 38.4828 64.0161 38.7476 64.2016 39.0128C64.387 39.2776 64.5724 39.5288 64.7734 39.7801C64.9743 40.0308 65.1907 40.2681 65.4072 40.5054C65.6236 40.7422 65.871 40.9654 66.1024 41.1747C66.3498 41.398 66.5973 41.5933 66.8602 41.8022C67.1226 41.9975 67.3855 42.1928 67.6639 42.3741C67.9418 42.5554 68.2202 42.7228 68.5136 42.8901C68.8075 43.0575 69.1009 43.1973 69.4103 43.3367C69.7192 43.4761 70.0286 43.6014 70.3375 43.7273C70.6469 43.8387 70.9713 43.9501 71.2962 44.048C71.6206 44.1454 71.945 44.2293 72.2854 44.2993C72.6098 44.3687 72.9496 44.4247 73.29 44.4806C73.6299 44.5221 73.9698 44.564 74.3097 44.592C74.6501 44.62 74.99 44.6339 75.3298 44.6339H85.5774V53.8676C85.5774 54.0625 85.5774 54.2578 85.5774 54.4531C85.5774 54.6484 85.5929 54.8437 85.6084 55.039C85.6239 55.2344 85.6549 55.4297 85.6859 55.625C85.7164 55.8203 85.7474 56.0156 85.7939 56.2109C85.8403 56.4057 85.8713 56.6011 85.9328 56.7824C85.9793 56.9777 86.0413 57.159 86.1027 57.3543C86.1647 57.5357 86.2267 57.731 86.3037 57.9123C86.3812 58.0936 86.4431 58.275 86.5356 58.4563C86.6131 58.6376 86.7055 58.8189 86.7985 59.0003C86.8915 59.1816 86.984 59.3489 87.0769 59.5303C87.1849 59.6976 87.2779 59.8789 87.3858 60.0463C87.4943 60.2136 87.6023 60.381 87.7257 60.5488C87.8497 60.7161 87.9731 60.8695 88.0971 61.0368C88.2205 61.1902 88.3595 61.3435 88.4984 61.4969C88.6379 61.6502 88.7769 61.8041 88.9158 61.9435C89.0553 62.0828 89.2097 62.2362 89.3642 62.3756C89.5186 62.5154 89.6736 62.6548 89.828 62.7802C89.9825 62.9056 90.1524 63.0454 90.3223 63.1708C90.4928 63.2962 90.6627 63.4221 90.8327 63.5335C91.0026 63.6449 91.1881 63.7707 91.358 63.8681C91.5434 63.98 91.7134 64.0774 91.8988 64.1888C92.0848 64.2867 92.2702 64.3841 92.4711 64.482C92.6566 64.5795 92.8575 64.6634 93.0584 64.7468C93.2594 64.8307 93.4448 64.9141 93.6457 64.9841C93.8467 65.054 94.0476 65.1374 94.2485 65.1934C94.4495 65.2628 94.6659 65.3188 94.8668 65.3747C95.0678 65.4302 95.2842 65.4861 95.5001 65.528C95.7165 65.57 95.9175 65.6255 96.1339 65.6534C96.3503 65.6814 96.5668 65.7234 96.7677 65.7513C96.9841 65.7793 97.2006 65.8068 97.417 65.8208C97.6334 65.8348 97.8498 65.8487 98.0663 65.8627C98.2827 65.8767 98.4986 65.8767 98.715 65.8767C98.9315 65.8767 99.1479 65.8767 99.3643 65.8627C99.5808 65.8487 99.7972 65.8348 100.014 65.8208C100.23 65.8068 100.446 65.7793 100.663 65.7513C100.879 65.7234 101.096 65.6954 101.297 65.6534C101.497 65.6115 101.714 65.57 101.93 65.528C102.146 65.4861 102.347 65.4302 102.564 65.3747C102.765 65.3188 102.981 65.2488 103.182 65.1934C103.383 65.1234 103.584 65.054 103.785 64.9841C103.986 64.9141 104.187 64.8307 104.372 64.7468C104.573 64.6634 104.759 64.5795 104.959 64.482C105.145 64.3841 105.346 64.2867 105.531 64.1888C105.717 64.0914 105.902 63.98 106.073 63.8681C106.258 63.7567 106.428 63.6449 106.598 63.5335C106.768 63.4221 106.938 63.2962 107.108 63.1708C107.278 63.0454 107.433 62.9195 107.603 62.7802C107.757 62.6548 107.911 62.5154 108.066 62.3756C108.221 62.2362 108.36 62.0968 108.514 61.9435C108.654 61.8041 108.793 61.6502 108.932 61.4969C109.071 61.3435 109.195 61.1902 109.333 61.0368C109.457 60.8835 109.581 60.7161 109.704 60.5488C109.828 60.381 109.936 60.2136 110.045 60.0463C110.153 59.8789 110.261 59.7116 110.354 59.5303C110.447 59.3629 110.555 59.1816 110.632 59.0003C110.725 58.8189 110.802 58.6376 110.895 58.4563C110.972 58.275 111.049 58.0936 111.126 57.9123C111.204 57.731 111.266 57.5357 111.327 57.3543C111.389 57.173 111.451 56.9777 111.497 56.7824C111.544 56.5871 111.59 56.4057 111.637 56.2109C111.683 56.0156 111.714 55.8203 111.745 55.625C111.776 55.4297 111.791 55.2344 111.822 55.039C111.838 54.8437 111.853 54.6484 111.853 54.4531C111.853 54.2578 111.869 54.0625 111.853 53.8676V52.8072C110.849 52.1098 109.89 51.3985 109.025 50.6038Z" fill="white"/>
</g>
<mask id="mask1_379_694" style="mask-type:luminance" maskUnits="userSpaceOnUse" x="84" y="0" width="52" height="38">
<path d="M84.9562 0H135.159V37.037H84.9562V0Z" fill="white"/>
</mask>
<g mask="url(#mask1_379_694)">
<path d="M86.8448 23.1819C86.4119 24.102 85.8091 24.9253 85.0364 25.6366L85.2218 26.0272V26.0692H91.3423V11.6604C91.3423 11.4516 91.3578 11.2283 91.3888 11.019C91.4198 10.8097 91.4508 10.5864 91.5122 10.3776C91.5587 10.1683 91.6207 9.95901 91.6982 9.74971C91.7752 9.54041 91.8526 9.3451 91.9451 9.14979C92.0381 8.95448 92.146 8.75916 92.2545 8.56433C92.3625 8.36902 92.5014 8.18769 92.6254 8.02035C92.7643 7.83902 92.9033 7.6712 93.0582 7.50386C93.2127 7.33652 93.3671 7.18316 93.5371 7.0298C93.707 6.87645 93.893 6.73708 94.0784 6.59722C94.2638 6.45785 94.4493 6.33247 94.6502 6.22107C94.8511 6.10918 95.0521 5.99778 95.2685 5.89988C95.4849 5.80247 95.7008 5.70457 95.9173 5.62114C96.1337 5.53723 96.3656 5.46779 96.5975 5.41184C96.8295 5.3559 97.0614 5.30044 97.2933 5.25849C97.5247 5.21653 97.7567 5.18856 98.0041 5.16059C98.236 5.1331 98.4834 5.1331 98.7148 5.1331C98.9468 5.1331 99.1942 5.14661 99.4261 5.16059C99.658 5.17458 99.9049 5.21653 100.137 5.25849C100.369 5.30044 100.601 5.3559 100.833 5.41184C101.065 5.46779 101.281 5.55122 101.512 5.62114C101.729 5.70457 101.945 5.78848 102.162 5.89988C102.378 5.99778 102.579 6.10918 102.78 6.22107C102.981 6.33247 103.166 6.47184 103.352 6.59722C103.537 6.73708 103.723 6.87645 103.893 7.0298C104.063 7.18316 104.233 7.33652 104.372 7.50386C104.526 7.6712 104.666 7.83902 104.805 8.02035C104.944 8.20168 105.068 8.38301 105.176 8.56433C105.284 8.74566 105.392 8.94049 105.485 9.14979C105.578 9.3451 105.671 9.5544 105.732 9.74971C105.809 9.95901 105.871 10.1683 105.917 10.3776C105.964 10.5864 106.01 10.7957 106.041 11.019C106.072 11.2283 106.088 11.4516 106.088 11.6604V26.0827H108.839C109.287 25.8878 109.766 25.734 110.246 25.6366C110.74 25.5392 111.235 25.4832 111.729 25.4832C112.224 25.4832 112.718 25.5387 113.213 25.6366C113.707 25.734 114.171 25.8878 114.62 26.0827H122.054C122.301 26.0827 122.533 26.0966 122.78 26.1106C123.028 26.1386 123.26 26.1666 123.492 26.2085C123.723 26.2505 123.955 26.3059 124.187 26.3619C124.419 26.4318 124.651 26.5013 124.867 26.5852C125.084 26.6686 125.315 26.7665 125.516 26.8639C125.732 26.9618 125.933 27.0732 126.134 27.1986C126.335 27.3245 126.536 27.4498 126.721 27.5892C126.907 27.7286 127.093 27.8684 127.263 28.0218C127.433 28.1752 127.603 28.3425 127.742 28.5098C127.897 28.6772 128.036 28.8585 128.175 29.0398C128.313 29.2212 128.437 29.4025 128.545 29.5978C128.654 29.7931 128.762 29.9884 128.855 30.1837C128.947 30.3791 129.025 30.5883 129.102 30.7972C129.179 31.0065 129.226 31.2158 129.272 31.4251C129.318 31.6344 129.349 31.8572 129.38 32.0665C129.411 32.2897 129.411 32.499 129.411 32.7223C129.411 33.1264 129.365 33.5311 129.288 33.9217C131.374 34.2983 133.12 35.0376 134.141 36.6835C134.203 36.767 134.234 36.8649 134.295 36.9623L134.496 36.4323C134.573 36.209 134.651 35.9862 134.712 35.7629C134.774 35.5396 134.836 35.3164 134.883 35.0796C134.929 34.8563 134.975 34.619 135.022 34.3957C135.068 34.1729 135.084 33.9357 135.114 33.6984C135.13 33.4616 135.145 33.2383 135.161 33.0011C135.161 32.7638 135.161 32.541 135.161 32.3037C135.145 32.0665 135.13 31.8437 135.114 31.6064C135.099 31.3691 135.053 31.1458 135.022 30.909C134.975 30.6718 134.929 30.4485 134.883 30.2257C134.821 30.0024 134.759 29.7651 134.697 29.5419C134.635 29.3191 134.558 29.0958 134.465 28.8725C134.388 28.6492 134.295 28.4399 134.187 28.2171C134.095 28.0078 133.986 27.7845 133.878 27.5752C133.77 27.3659 133.646 27.1571 133.522 26.9618C133.399 26.7665 133.26 26.5572 133.12 26.3619C132.981 26.1666 132.842 25.9713 132.688 25.7899C132.533 25.5946 132.379 25.4133 132.209 25.232C132.039 25.0506 131.869 24.8693 131.699 24.702C131.528 24.5346 131.343 24.3673 131.158 24.1999C130.972 24.0326 130.787 23.8792 130.586 23.7259C130.385 23.572 130.184 23.4327 129.983 23.2933C129.782 23.1539 129.566 23.0141 129.349 22.8887C129.133 22.7633 128.916 22.6379 128.7 22.5121C128.484 22.4007 128.252 22.2753 128.02 22.1774C127.788 22.066 127.556 21.9681 127.324 21.8707C127.093 21.7728 126.845 21.6893 126.598 21.6054C126.351 21.522 126.119 21.4521 125.872 21.3826C125.624 21.3127 125.377 21.2568 125.13 21.2013C124.883 21.1454 124.62 21.1034 124.372 21.0614C124.125 21.02 123.862 20.992 123.6 20.964C123.337 20.9361 123.09 20.9221 122.827 20.9081C122.564 20.8941 122.316 20.8801 122.054 20.8941H111.822V11.6604C111.822 11.2703 111.791 10.8936 111.744 10.517C111.699 10.1403 111.621 9.7637 111.544 9.38706C111.451 9.01042 111.343 8.64776 111.219 8.27112C111.096 7.90847 110.941 7.54581 110.771 7.19714C110.601 6.84848 110.415 6.49981 110.215 6.16512C110.014 5.83044 109.782 5.49576 109.55 5.18856C109.303 4.86786 109.055 4.56115 108.777 4.26794C108.499 3.97521 108.221 3.69647 107.911 3.41725C107.602 3.15249 107.293 2.88725 106.953 2.64998C106.629 2.41319 106.273 2.17593 105.917 1.96663C105.562 1.75733 105.191 1.56202 104.82 1.38069C104.449 1.19936 104.063 1.04601 103.661 0.892651C103.275 0.753279 102.873 0.613908 102.456 0.516011C102.054 0.40461 101.636 0.306713 101.219 0.237269C100.802 0.167342 100.384 0.1114 99.9514 0.0699267C99.5805 0.0139853 99.1632 0 98.7303 0C98.298 0 97.8806 0.0139853 97.4633 0.0559414C97.0459 0.0974151 96.613 0.153357 96.1957 0.223283C95.7783 0.292728 95.361 0.390625 94.9591 0.502025C94.5572 0.613908 94.1554 0.739294 93.7535 0.878665C93.3671 1.01804 92.9807 1.18538 92.5944 1.36671C92.2235 1.54803 91.8526 1.74335 91.4973 1.95264C91.1414 2.16194 90.8015 2.38522 90.4616 2.636C90.1367 2.87326 89.8123 3.1385 89.5029 3.40326C89.194 3.6685 88.9156 3.96123 88.6377 4.25395C88.3593 4.54716 88.1119 4.85388 87.865 5.17458C87.6175 5.49576 87.4011 5.81645 87.2002 6.15114C86.9992 6.48582 86.8138 6.83449 86.6439 7.18316C86.4739 7.53183 86.3345 7.89448 86.1955 8.25714C86.0721 8.61979 85.9636 8.99643 85.8711 9.37307C85.7782 9.74971 85.7162 10.1264 85.6702 10.503C85.6237 10.8796 85.5927 11.2703 85.5927 11.6464V11.8697C87.1537 15.273 88.0349 20.5874 86.8448 23.1819Z" fill="white"/>
</g>
<path d="M66.4116 17.1142C66.659 18.816 68.5909 21.8706 70.8786 24.1999C71.8213 25.1625 73.2278 26.3898 74.5569 26.8359C75.1597 27.0172 75.7625 27.1431 76.3963 27.1986C77.0301 27.2545 77.6484 27.2405 78.2822 27.1571L78.9464 28.5238C78.9929 28.6212 79.0549 28.7191 79.1319 28.8025C79.2093 28.8865 79.2868 28.9699 79.3948 29.0398C79.4878 29.1097 79.5957 29.1652 79.7037 29.2072C79.8121 29.2491 79.9356 29.2771 80.0596 29.3051L80.121 29.5004L80.8168 29.2211C80.8788 29.4025 80.9558 29.5558 81.0332 29.7092C81.4971 30.6578 82.1149 31.5364 82.8726 32.3037C83.5369 32.9591 84.2792 33.545 85.0979 34.0331C85.9171 34.5216 86.7983 34.9122 87.741 35.2049C90.4461 36.0836 92.7178 35.7909 94.7272 35.5256C98.1585 35.0796 100.431 34.7863 103.553 40.7282C105.346 44.1594 107.726 47.2699 110.23 49.5158C113.213 52.1798 116.366 53.6024 119.38 53.6723C123.847 53.7558 127.757 50.9804 131.034 45.4287C133.26 41.6488 133.801 39.1102 132.765 37.4503C131.482 35.3863 128.313 35.2329 124.635 35.0376C121.838 34.8982 118.669 34.7309 116.165 33.6704C116.212 33.587 116.258 33.5031 116.304 33.4336C116.35 33.3497 116.381 33.2663 116.428 33.1824C116.459 33.0989 116.505 33.015 116.536 32.9316C116.567 32.8477 116.598 32.7638 116.629 32.6664C116.66 32.5824 116.675 32.485 116.706 32.4011C116.721 32.3177 116.737 32.2198 116.752 32.1364C116.768 32.0385 116.783 31.955 116.783 31.8571C116.799 31.7597 116.799 31.6758 116.799 31.5784C116.799 31.481 116.799 31.3971 116.799 31.2997C116.799 31.2018 116.783 31.1183 116.783 31.0204C116.768 30.923 116.752 30.8391 116.737 30.7557C116.721 30.6718 116.706 30.5743 116.675 30.4904C116.66 30.407 116.629 30.3091 116.598 30.2257C116.567 30.1418 116.536 30.0578 116.505 29.9604C116.474 29.8765 116.428 29.7931 116.397 29.7092C116.35 29.6258 116.319 29.5418 116.273 29.4584C116.227 29.3745 116.181 29.2911 116.134 29.2211C116.088 29.1377 116.026 29.0678 115.98 28.9839C115.918 28.9144 115.872 28.8305 115.81 28.7611C115.748 28.6911 115.686 28.6212 115.624 28.5518C115.562 28.4818 115.485 28.4124 115.423 28.3565C115.346 28.2865 115.284 28.2311 115.207 28.1611C115.129 28.1052 115.052 28.0358 114.975 27.9798C114.898 27.9239 114.82 27.8684 114.727 27.8125C114.651 27.7565 114.558 27.7146 114.481 27.6591C114.388 27.6172 114.31 27.5612 114.218 27.5198C114.125 27.4778 114.032 27.4358 113.939 27.3939C113.847 27.3519 113.754 27.3244 113.661 27.2825C113.568 27.2545 113.476 27.2126 113.383 27.1846C113.29 27.1571 113.182 27.1291 113.09 27.1151C112.997 27.0872 112.889 27.0732 112.796 27.0592C112.703 27.0452 112.595 27.0312 112.502 27.0172C112.409 27.0033 112.301 26.9893 112.193 26.9893C112.085 26.9893 111.992 26.9758 111.884 26.9758C111.775 26.9758 111.683 26.9758 111.575 26.9758C111.467 26.9758 111.374 26.9893 111.266 27.0033C111.157 27.0172 111.065 27.0312 110.972 27.0452C110.879 27.0592 110.771 27.0732 110.678 27.1012C110.585 27.1291 110.477 27.1431 110.384 27.1706C110.292 27.1986 110.199 27.2265 110.091 27.2545C109.998 27.2825 109.905 27.3244 109.813 27.3519C109.72 27.3939 109.627 27.4219 109.534 27.4638C109.442 27.5058 109.349 27.5472 109.272 27.6032C109.194 27.6591 109.102 27.7011 109.009 27.7565C108.931 27.8125 108.839 27.8684 108.761 27.9239C108.685 27.9798 108.607 28.0358 108.53 28.0912C108.453 28.1472 108.375 28.2171 108.313 28.2725C108.236 28.3425 108.174 28.3984 108.112 28.4679C108.051 28.5378 107.973 28.6072 107.911 28.6772C107.85 28.7471 107.788 28.8165 107.726 28.9004C107.664 28.9699 107.618 29.0538 107.556 29.1237C107.509 29.2072 107.448 29.2771 107.401 29.3605C107.355 29.4444 107.308 29.5279 107.263 29.6118C107.216 29.6952 107.185 29.7791 107.139 29.863C107.108 29.9464 107.077 30.0304 107.046 30.1278C107.015 30.2117 106.984 30.2951 106.969 30.393C106.938 30.4764 106.922 30.5743 106.907 30.6578C106.892 30.7417 106.876 30.8391 106.861 30.923C106.845 31.0204 106.845 31.1043 106.83 31.2018C106.83 31.2997 106.814 31.3831 106.814 31.481C106.814 31.5784 106.814 31.6623 106.83 31.7597C106.83 31.8571 106.845 31.941 106.861 32.0385C106.876 32.1364 106.892 32.2198 106.907 32.3037C106.922 32.3876 106.953 32.485 106.969 32.5689C106.984 32.6524 107.015 32.7503 107.046 32.8337C107.077 32.9176 107.108 33.001 107.139 33.0989C107.17 33.1824 107.216 33.2663 107.263 33.3497C107.308 33.4336 107.355 33.5171 107.401 33.601C107.448 33.6844 107.494 33.7543 107.556 33.8382C107.602 33.9217 107.664 33.9916 107.726 34.061C107.788 34.131 107.85 34.2144 107.911 34.2843C107.973 34.3542 108.035 34.4237 108.112 34.4936C108.174 34.5631 108.252 34.633 108.329 34.6889C108.406 34.7584 108.468 34.8143 108.545 34.8703C108.623 34.9257 108.7 34.9817 108.777 35.0376C108.854 35.0935 108.931 35.149 109.024 35.2049C109.102 35.2609 109.194 35.3024 109.287 35.3583C109.38 35.4002 109.457 35.4562 109.55 35.4977C109.643 35.5396 109.735 35.5816 109.828 35.6095C109.921 35.651 110.014 35.679 110.106 35.707C110.199 35.7349 110.292 35.7629 110.4 35.7909C110.493 35.8188 110.601 35.8463 110.694 35.8603C110.786 35.8883 110.895 35.9023 110.987 35.9163C111.08 35.9302 111.188 35.9442 111.281 35.9582C111.389 35.9722 111.482 35.9722 111.59 35.9862C111.699 35.9862 111.791 35.9862 111.899 35.9862C112.007 35.9862 112.1 35.9862 112.208 35.9722C112.316 35.9722 112.409 35.9582 112.517 35.9442C112.61 35.9302 112.718 35.9163 112.811 35.9023C112.904 35.8883 113.012 35.8603 113.105 35.8463C113.198 35.8188 113.305 35.8049 113.398 35.7769C113.491 35.7489 113.584 35.7209 113.677 35.679C113.769 35.651 113.862 35.6095 113.955 35.5676C114.048 35.5256 114.14 35.4837 114.233 35.4422C114.326 35.4002 114.403 35.3583 114.496 35.3024C114.589 35.2609 114.666 35.2049 114.743 35.149C117.772 36.5996 121.374 36.7809 124.573 36.9483C127.495 37.1016 130.246 37.2415 130.957 38.3709C131.389 39.0548 131.436 40.6727 129.195 44.4941C126.335 49.362 123.059 51.8031 119.488 51.7192C113.738 51.6078 108.391 45.2753 105.562 39.8915C101.76 32.6664 98.0661 33.1404 94.4958 33.601C92.6564 33.8377 90.755 34.089 88.5447 33.3777C85.0674 32.2478 83.5214 30.1138 82.8416 28.4259L82.9961 28.3704C83.0891 28.3425 83.166 28.2865 83.2435 28.2446C83.3205 28.2031 83.3979 28.1332 83.4599 28.0772C83.5214 28.0218 83.5834 27.9519 83.6454 27.8684C83.6919 27.7985 83.7378 27.7146 83.7688 27.6312C83.7998 27.5472 83.8308 27.4638 83.8463 27.3799C83.8618 27.2965 83.8773 27.2126 83.8773 27.1151C83.8773 27.0312 83.8618 26.9478 83.8463 26.8639C83.8308 26.7805 83.7998 26.6965 83.7533 26.6131L83.0891 25.2459C83.5834 24.8833 84.0162 24.4787 84.4026 24.0326C84.789 23.586 85.1134 23.084 85.3608 22.568C86.6284 19.8061 84.9899 12.7483 82.9961 10.5724C82.0844 9.59633 80.7083 9.03837 78.9774 8.94047C78.8695 8.75914 78.73 8.5918 78.5601 8.43844C78.3901 8.28509 78.2202 8.1597 78.0192 8.04782C77.8183 7.93642 77.6019 7.85251 77.37 7.79705C77.138 7.74111 76.9061 7.71313 76.6747 7.71313C76.5662 7.71313 76.4583 7.71313 76.3498 7.72712C76.2418 7.74111 76.1334 7.75509 76.0409 7.78306C75.9324 7.81103 75.84 7.839 75.7315 7.86649C75.639 7.89446 75.5306 7.93642 75.4381 7.99236C75.3451 8.03383 75.2527 8.08977 75.1597 8.14572C75.0672 8.20166 74.9897 8.25712 74.9123 8.32704C74.8353 8.39649 74.7578 8.46641 74.6964 8.53634C74.6344 8.60579 74.5569 8.6897 74.5104 8.77313C74.4489 8.85704 74.4024 8.94047 74.356 9.02438C74.3095 9.10829 74.2635 9.20571 74.2325 9.28962C74.2015 9.38704 74.1705 9.47095 74.1395 9.56836C74.124 9.66578 74.1085 9.76367 74.0936 9.86109C74.0781 9.95899 74.0781 10.0564 74.0936 10.1543C74.0936 10.2517 74.1085 10.3496 74.124 10.447C74.1395 10.5449 74.1705 10.6423 74.2015 10.7263C74.2325 10.8237 74.2635 10.9076 74.3095 10.991C74.4179 11.2003 74.5414 11.3956 74.7113 11.5769C74.8818 11.7583 75.0672 11.8976 75.2837 12.023C75.5001 12.1489 75.7315 12.2463 75.9789 12.3023C76.2263 12.3582 76.4738 12.3997 76.7362 12.3857C76.9991 12.3857 77.2465 12.3442 77.4939 12.2743C77.7408 12.2044 77.9728 12.093 78.1737 11.9676C78.3901 11.8277 78.5756 11.6744 78.73 11.493C78.885 11.3117 79.0084 11.1024 79.1009 10.8936C80.0751 10.977 80.8013 11.2702 81.2807 11.7583L81.3266 11.8142C82.0379 12.581 82.8106 14.5616 83.2745 16.7236C83.7223 18.8855 83.7688 20.964 83.367 21.8287C82.6407 23.4187 80.6469 24.4787 80.0286 24.7859C79.3483 24.9947 77.138 25.5946 75.3606 24.9947C74.3869 24.674 72.7485 23.2513 71.2805 21.452C69.812 19.6528 68.7453 17.8255 68.6064 16.8214C68.5134 16.1516 68.7608 15.4543 69.3791 14.715C69.4721 14.7569 69.5801 14.7849 69.6885 14.7989C69.7965 14.8268 69.8895 14.8408 69.9974 14.8548C70.1054 14.8688 70.2138 14.8688 70.3218 14.8828C70.4303 14.8828 70.5382 14.8828 70.6467 14.8688C70.7547 14.8548 70.8631 14.8408 70.9556 14.8129C71.0641 14.7849 71.1565 14.7569 71.265 14.729C71.3575 14.7015 71.4659 14.6595 71.5584 14.6176C71.6514 14.5756 71.7438 14.5201 71.8368 14.4642C71.9293 14.4083 72.0067 14.3523 72.0842 14.2829C72.1612 14.2129 72.2387 14.1575 72.3156 14.0736C72.3931 14.0036 72.4551 13.9202 72.5166 13.8503C72.5786 13.7669 72.625 13.6829 72.687 13.5995C72.733 13.5156 72.7795 13.4322 72.8105 13.3343C72.8415 13.2508 72.8725 13.1529 72.9029 13.0555C72.9339 12.9576 72.9494 12.8742 72.9494 12.7763C72.9649 12.6789 72.9649 12.581 72.9649 12.4836C72.9649 12.3857 72.9494 12.2883 72.9339 12.1904C72.9184 12.093 72.9029 11.9955 72.8725 11.9116C72.8415 11.8142 72.8105 11.7303 72.764 11.6329C72.7175 11.549 72.6715 11.4516 72.625 11.3676C72.5786 11.2837 72.5166 11.2003 72.4551 11.1304C72.3931 11.047 72.3311 10.977 72.2542 10.9076C72.1767 10.8377 72.0997 10.7677 72.0222 10.7123C71.9448 10.6563 71.8523 10.6004 71.7593 10.5449C71.6669 10.489 71.5739 10.447 71.4814 10.4051C71.3884 10.3636 71.2805 10.3216 71.1875 10.2937C71.0796 10.2657 70.9866 10.2377 70.8786 10.2237C70.7702 10.2098 70.6622 10.1958 70.5692 10.1823C70.4613 10.1683 70.3528 10.1683 70.2448 10.1823C70.1364 10.1823 70.0284 10.1958 69.9199 10.2098C69.812 10.2237 69.7035 10.2517 69.611 10.2797C69.5026 10.3077 69.4101 10.3356 69.3171 10.3771C69.1627 10.433 69.0237 10.503 68.8848 10.5864C68.7453 10.6703 68.6219 10.7677 68.5134 10.8656C68.3899 10.977 68.2975 11.0889 68.2045 11.2003C68.1115 11.3117 68.0346 11.4516 67.9726 11.5909C67.9106 11.7303 67.8491 11.8697 67.8181 12.009C67.7871 12.1489 67.7562 12.3023 67.7562 12.4416C67.7562 12.595 67.7562 12.7344 67.7871 12.8882C67.8181 13.0276 67.8491 13.1809 67.9106 13.3203C66.705 14.5616 66.2262 15.8589 66.4116 17.1142Z" fill="white"/>
<path d="M55.4364 90.6332C53.7616 90.6332 52.2578 90.3139 50.924 89.6745C49.5912 89.0355 48.5438 88.1457 47.7817 87.0047C47.0207 85.8627 46.6403 84.5703 46.6403 83.1274C46.6403 81.6845 47.0207 80.393 47.7817 79.252C48.5438 78.1115 49.5912 77.2217 50.924 76.5823C52.2578 75.9433 53.7616 75.6235 55.4364 75.6235C56.8985 75.6235 58.2158 75.8579 59.3888 76.3257C60.5613 76.7925 61.536 77.4657 62.313 78.3454L59.4359 80.6949C58.3997 79.5684 57.1428 79.0051 55.6651 79.0051C54.7973 79.0051 54.024 79.1768 53.3459 79.5201C52.6688 79.8635 52.1435 80.3487 51.7705 80.9746C51.3969 81.5996 51.2104 82.3172 51.2104 83.1274C51.2104 83.939 51.3969 84.6571 51.7705 85.2821C52.1435 85.9071 52.6688 86.3922 53.3459 86.7366C54.024 87.0799 54.7973 87.2516 55.6651 87.2516C57.1428 87.2516 58.3997 86.6879 59.4359 85.5599L62.313 87.9113C61.536 88.791 60.5613 89.4652 59.3888 89.9329C58.2158 90.3998 56.8985 90.6332 55.4364 90.6332Z" fill="white"/>
<path d="M64.118 75.0469H68.4594V90.3439H64.118V75.0469Z" fill="white"/>
<path d="M84.3143 79.1692L78.9681 90.7973C78.344 92.1717 77.5819 93.1377 76.6831 93.6947C75.7837 94.2512 74.6871 94.5299 73.3933 94.5299C72.7376 94.5299 72.0787 94.4364 71.4161 94.2502C70.7545 94.065 70.2179 93.821 69.8065 93.5191L71.3135 90.7761C71.5571 90.9829 71.85 91.1445 72.192 91.2602C72.5351 91.3769 72.8824 91.4358 73.233 91.4358C73.6445 91.4358 73.9838 91.3596 74.2505 91.2082C74.5166 91.0577 74.7411 90.8175 74.9238 90.4886L69.6226 79.1692H74.0795L77.117 85.994L80.178 79.1692H84.3143Z" fill="white"/>
<path d="M93.2242 78.9839C94.3497 78.9839 95.3736 79.2212 96.296 79.6957C97.2178 80.1693 97.9488 80.8425 98.4891 81.7154C99.0305 82.5887 99.3014 83.6029 99.3014 84.7574C99.3014 85.911 99.0305 86.9247 98.4891 87.7975C97.9488 88.6709 97.2178 89.3446 96.296 89.8191C95.3736 90.2927 94.3497 90.529 93.2242 90.529C91.776 90.529 90.626 90.1374 89.7742 89.3543V94.3427H85.4327V79.1691H89.5668V80.2821C90.3748 79.417 91.5938 78.9839 93.2242 78.9839ZM92.3094 87.4156C93.0703 87.4156 93.6945 87.1793 94.1819 86.7057C94.6693 86.2312 94.9129 85.5821 94.9129 84.7574C94.9129 83.9318 94.6693 83.2827 94.1819 82.8091C93.6945 82.3346 93.0703 82.0973 92.3094 82.0973C91.5484 82.0973 90.9242 82.3346 90.4368 82.8091C89.9495 83.2827 89.7058 83.9318 89.7058 84.7574C89.7058 85.5821 89.9495 86.2312 90.4368 86.7057C90.9242 87.1793 91.5484 87.4156 92.3094 87.4156Z" fill="white"/>
<path d="M105.812 90.529C104.776 90.529 103.755 90.4229 102.749 90.2107C101.744 89.9976 100.937 89.7188 100.327 89.3755L101.631 86.6941C102.194 87.0105 102.863 87.2622 103.64 87.4484C104.417 87.6336 105.186 87.7262 105.949 87.7262C106.648 87.7262 107.147 87.6615 107.443 87.5313C107.741 87.4002 107.89 87.2106 107.89 86.9623C107.89 86.7154 107.711 86.5408 107.353 86.4376C106.995 86.3334 106.428 86.2341 105.652 86.1386C104.661 86.0282 103.819 85.8835 103.125 85.7046C102.433 85.5261 101.835 85.1963 101.332 84.715C100.83 84.2342 100.579 83.561 100.579 82.6953C100.579 81.9806 100.815 81.3445 101.287 80.7875C101.76 80.231 102.449 79.7912 103.354 79.4681C104.26 79.1454 105.346 78.9839 106.612 78.9839C107.509 78.9839 108.4 79.0664 109.284 79.2308C110.167 79.3957 110.906 79.6296 111.5 79.933L110.198 82.5911C109.101 82.0423 107.912 81.7675 106.633 81.7675C105.947 81.7675 105.444 81.8398 105.124 81.9835C104.804 82.1277 104.645 82.3167 104.645 82.5506C104.645 82.812 104.82 82.9938 105.171 83.0965C105.521 83.1997 106.101 83.3063 106.909 83.4168C107.929 83.5547 108.774 83.7129 109.444 83.8913C110.113 84.0702 110.695 84.3967 111.19 84.8712C111.686 85.3448 111.934 86.0074 111.934 86.86C111.934 87.5612 111.697 88.1901 111.225 88.7466C110.753 89.3036 110.056 89.7401 109.134 90.0564C108.213 90.3713 107.106 90.529 105.812 90.529Z" fill="white"/>
<path d="M126.464 84.7767C126.464 84.8052 126.441 85.1288 126.395 85.747H117.394C117.576 86.3233 117.93 86.7665 118.456 87.0761C118.982 87.3847 119.64 87.5391 120.431 87.5391C121.025 87.5391 121.54 87.4638 121.975 87.3134C122.409 87.1619 122.847 86.9141 123.287 86.5707L125.572 88.7158C124.369 89.9248 122.61 90.529 120.294 90.529C118.848 90.529 117.576 90.2821 116.479 89.7883C115.383 89.2935 114.534 88.6058 113.933 87.7262C113.331 86.8465 113.031 85.8502 113.031 84.7362C113.031 83.6367 113.324 82.6505 113.909 81.7771C114.496 80.9042 115.307 80.2204 116.342 79.7266C117.378 79.2318 118.544 78.9839 119.839 78.9839C121.071 78.9839 122.19 79.2144 123.195 79.6745C124.201 80.135 124.997 80.802 125.583 81.6749C126.17 82.5468 126.464 83.5807 126.464 84.7767ZM119.861 81.7675C119.19 81.7675 118.63 81.9391 118.18 82.2825C117.731 82.6259 117.446 83.0936 117.325 83.6849H122.398C122.275 83.0936 121.99 82.6259 121.541 82.2825C121.092 81.9391 120.532 81.7675 119.861 81.7675Z" fill="white"/>
<path d="M132.608 80.5097C133.049 80.0005 133.624 79.6195 134.333 79.3658C135.041 79.1112 135.853 78.9839 136.767 78.9839V82.5101C136.371 82.4677 136.043 82.4465 135.784 82.4465C134.855 82.4465 134.128 82.6736 133.602 83.1274C133.077 83.5817 132.815 84.2761 132.815 85.2107V90.3438H128.474V79.1691H132.608V80.5097Z" fill="white"/>
<path d="M143.872 78.9839C145.928 78.9839 147.496 79.4073 148.577 80.2532C149.658 81.0981 150.199 82.3934 150.199 84.1382V90.3438H146.157V88.9009C145.531 89.9865 144.313 90.529 142.502 90.529C141.541 90.529 140.71 90.3776 140.009 90.0757C139.309 89.7738 138.781 89.3649 138.423 88.8489C138.065 88.3333 137.887 87.7455 137.887 87.0857C137.887 86.0277 138.335 85.2064 139.233 84.6224C140.132 84.0389 141.518 83.7466 143.391 83.7466H145.86C145.783 82.5651 144.907 81.9739 143.233 81.9739C142.638 81.9739 142.036 82.0602 141.426 82.2323C140.818 82.4035 140.3 82.6403 139.872 82.9422L138.41 80.2821C139.095 79.8708 139.929 79.552 140.911 79.3253C141.895 79.0977 142.881 78.9839 143.872 78.9839ZM143.711 88.056C144.214 88.056 144.656 87.9461 145.037 87.7262C145.417 87.5063 145.691 87.1832 145.86 86.7559V85.7875H143.985C142.721 85.7875 142.089 86.1656 142.089 86.9218C142.089 87.2651 142.233 87.5405 142.523 87.7474C142.812 87.9533 143.208 88.056 143.711 88.056Z" fill="white"/>
</svg>
