<svg width="1398" height="306" viewBox="0 0 1398 306" fill="none" xmlns="http://www.w3.org/2000/svg">
<path fill-rule="evenodd" clip-rule="evenodd" d="M1406.47 50.751L1380.69 72.0218C1354.9 93.2925 1302.16 135.834 1250.59 135.834C1197.85 135.834 1146.28 93.2925 1093.53 64.9315C1041.96 36.5705 989.22 22.39 937.65 57.8413C886.079 93.2925 822.202 142.924 770.631 157.105C717.888 171.285 687.61 100.383 634.867 107.473C583.296 114.563 520.396 235.097 468.825 235.097C417.254 235.097 364.511 164.195 312.941 107.473C260.198 50.751 208.627 8.20951 155.884 1.11926C104.313 -5.97099 51.5707 22.39 25.7853 36.5705L0 50.751V306H25.7853C51.5707 306 104.313 306 155.884 306C208.627 306 260.198 306 312.941 306C364.511 306 417.254 306 468.825 306C520.396 306 573.138 306 624.709 306C677.452 306 729.023 306 781.765 306C833.336 306 886.079 306 937.65 306C989.22 306 1041.96 306 1093.53 306C1146.28 306 1197.85 306 1250.59 306C1302.16 306 1354.9 306 1380.69 306H1406.47V50.751Z" fill="#98D2C0" fill-opacity="0.33"/>
</svg>
