<svg width="1043" height="328" viewBox="0 0 1043 328" fill="none" xmlns="http://www.w3.org/2000/svg">
<path fill-rule="evenodd" clip-rule="evenodd" d="M1407 175.865L1381.06 188.619C1354.78 201.069 1302.9 213.897 1250.69 207.52C1198.47 201.144 1146.59 175.865 1094.38 143.98C1042.5 112.4 990.279 86.8919 938.063 106.023C886.183 125.153 833.967 156.09 781.751 162.163C729.871 168.54 677.655 150.357 625.775 112.4C573.559 74.4417 521.342 15.3957 469.463 2.64183C417.246 -9.80834 365.03 23.7301 313.15 61.6879C260.934 99.6457 209.054 122.004 156.838 122.004C104.621 122.004 52.7419 99.6457 26.4653 61.6879L0.525513 23.7301V328H26.4653C52.7419 328 104.621 328 156.838 328C209.054 328 260.934 328 313.15 328C365.03 328 417.246 328 469.463 328C521.342 328 573.559 328 625.775 328C677.655 328 729.871 328 781.751 328C833.967 328 886.183 328 938.063 328C990.279 328 1042.5 328 1094.38 328C1146.59 328 1198.47 328 1250.69 328C1302.9 328 1354.78 328 1381.06 328H1407V175.865Z" fill="#98D2C0" fill-opacity="0.66"/>
</svg>
