<svg width="1398" height="204" viewBox="0 0 1398 204" fill="none" xmlns="http://www.w3.org/2000/svg">
<path fill-rule="evenodd" clip-rule="evenodd" d="M0 94.2432L39.0781 100.373C78.1562 106.503 156.312 118.763 234.469 106.503C312.625 94.2432 390.781 57.755 468.937 45.4949C547.093 33.2348 625.249 45.4949 703.406 75.8531C781.225 106.503 859.381 155.252 937.537 118.763C1015.69 81.9831 1093.85 39.5389 1172.01 8.88871C1250.16 -21.4696 1328.32 33.2348 1367.4 63.5931L1406.47 94.2432V204H1367.4C1328.32 204 1250.16 204 1172.01 204C1093.85 204 1015.69 204 937.537 204C859.381 204 781.225 204 703.069 204C625.249 204 547.093 204 468.937 204C390.781 204 312.625 204 234.469 204C156.312 204 78.1562 204 39.0781 204H0V94.2432Z" fill="#98D2C0"/>
</svg>
